@startuml
' 1. class, interface, abstract, enum >> package
' 2. line color/thickness/length
' 3. together to help layout
' 4. hide by name/tag/class/enum/...

!theme toy
!define key_class #header:LightBlue
!define key_objects <color:red>
!$show_note = %false()
!$show_refer_to = %false()

skinparam groupInheritance 2

' hide attributes
' hide methods
' hide cls2
' hide unlink
' hide $tag1



class cls1 $tag1 key_class{
    int key_objects attr1
    ==
    int [[www.baidu.com func1]]()
}

package a.b{
    class cls2 <<....top doc....>>{
        int attr2
    }
}


cls1 <|-down-cls2: is-inherited-by >
cls1 --[#purple,dashed,thickness=5]---|> cls2: inherit from >

cls3 *-- cls4: "has-a" >
cls1::attr1 --* cls2::func2: has-a >
note on link #yellow : this is a note0

cls5 o.. cls6: "refer-to w/o ownership" >

note right of cls1: this is a note2

note "this is a note3" as N1
cls1 .. N1
cls2 .. N1


legend
    a TitleFontStyle
end legend

@enduml
